<mxfile host="app.diagrams.net" modified="2023-06-06T09:17:36.267Z" agent="Mozilla/5.0 (Windows NT 10.0; Win64; x64) AppleWebKit/537.36 (KHTML, like Gecko) Chrome/113.0.0.0 Safari/537.36 Edg/113.0.1774.57" etag="TMXFKQa4zfFTtsAPjifn" version="21.3.3" type="github">
  <diagram name="Page-1" id="2a216829-ef6e-dabb-86c1-c78162f3ba2b">
    <mxGraphModel dx="2074" dy="1116" grid="1" gridSize="10" guides="1" tooltips="1" connect="1" arrows="1" fold="1" page="1" pageScale="1" pageWidth="850" pageHeight="1100" background="none" math="0" shadow="0">
      <root>
        <mxCell id="0" />
        <mxCell id="1" parent="0" />
        <mxCell id="7nDcxTLfw2DQSQo6lw5K-8" value="&lt;b style=&quot;font-size: 14px;&quot;&gt;Диспетчер&lt;/b&gt;" style="swimlane;html=1;startSize=30;fontStyle=0;collapsible=0;horizontal=0;swimlaneLine=1;swimlaneFillColor=#ffffff;strokeWidth=2;whiteSpace=wrap;fontSize=14;" parent="1" vertex="1">
          <mxGeometry x="210" y="140" width="1400" height="970" as="geometry" />
        </mxCell>
        <mxCell id="7nDcxTLfw2DQSQo6lw5K-9" value="Поступила &lt;br style=&quot;font-size: 14px;&quot;&gt;заявка от жителя" style="points=[[0.145,0.145,0],[0.5,0,0],[0.855,0.145,0],[1,0.5,0],[0.855,0.855,0],[0.5,1,0],[0.145,0.855,0],[0,0.5,0]];shape=mxgraph.bpmn.event;html=1;verticalLabelPosition=bottom;labelBackgroundColor=#ffffff;verticalAlign=top;align=center;perimeter=ellipsePerimeter;outlineConnect=0;aspect=fixed;outline=standard;symbol=message;fontSize=14;" parent="7nDcxTLfw2DQSQo6lw5K-8" vertex="1">
          <mxGeometry x="70" y="125" width="50" height="50" as="geometry" />
        </mxCell>
        <mxCell id="7a84cebc1def654-3" value="Подобрать исполнителя" style="shape=ext;rounded=1;html=1;whiteSpace=wrap;fontSize=14;" parent="7nDcxTLfw2DQSQo6lw5K-8" vertex="1">
          <mxGeometry x="320" y="110" width="120" height="80" as="geometry" />
        </mxCell>
        <mxCell id="7a84cebc1def654-2" value="Записать информацию на бумажный носитель" style="shape=ext;rounded=1;html=1;whiteSpace=wrap;fontSize=14;" parent="7nDcxTLfw2DQSQo6lw5K-8" vertex="1">
          <mxGeometry x="160" y="110" width="120" height="80" as="geometry" />
        </mxCell>
        <mxCell id="7a84cebc1def654-39" style="edgeStyle=orthogonalEdgeStyle;rounded=0;html=1;jettySize=auto;orthogonalLoop=1;fontSize=14;" parent="7nDcxTLfw2DQSQo6lw5K-8" source="7a84cebc1def654-2" target="7a84cebc1def654-3" edge="1">
          <mxGeometry relative="1" as="geometry" />
        </mxCell>
        <mxCell id="7nDcxTLfw2DQSQo6lw5K-10" value="" style="edgeStyle=orthogonalEdgeStyle;rounded=0;orthogonalLoop=1;jettySize=auto;html=1;fontSize=14;" parent="7nDcxTLfw2DQSQo6lw5K-8" source="7nDcxTLfw2DQSQo6lw5K-9" target="7a84cebc1def654-2" edge="1">
          <mxGeometry relative="1" as="geometry" />
        </mxCell>
        <mxCell id="7nDcxTLfw2DQSQo6lw5K-17" style="edgeStyle=orthogonalEdgeStyle;rounded=0;orthogonalLoop=1;jettySize=auto;html=1;entryX=0.5;entryY=0;entryDx=0;entryDy=0;entryPerimeter=0;fontSize=14;" parent="7nDcxTLfw2DQSQo6lw5K-8" source="7nDcxTLfw2DQSQo6lw5K-13" target="7nDcxTLfw2DQSQo6lw5K-21" edge="1">
          <mxGeometry relative="1" as="geometry">
            <mxPoint x="510" y="500" as="targetPoint" />
            <Array as="points" />
          </mxGeometry>
        </mxCell>
        <mxCell id="7nDcxTLfw2DQSQo6lw5K-13" value="" style="points=[[0.25,0.25,0],[0.5,0,0],[0.75,0.25,0],[1,0.5,0],[0.75,0.75,0],[0.5,1,0],[0.25,0.75,0],[0,0.5,0]];shape=mxgraph.bpmn.gateway2;html=1;verticalLabelPosition=bottom;labelBackgroundColor=#ffffff;verticalAlign=top;align=center;perimeter=rhombusPerimeter;outlineConnect=0;outline=catching;symbol=multiple;fontSize=14;" parent="7nDcxTLfw2DQSQo6lw5K-8" vertex="1">
          <mxGeometry x="485" y="372.5" width="50" height="50" as="geometry" />
        </mxCell>
        <mxCell id="7nDcxTLfw2DQSQo6lw5K-20" style="edgeStyle=orthogonalEdgeStyle;rounded=0;orthogonalLoop=1;jettySize=auto;html=1;entryX=0;entryY=0.5;entryDx=0;entryDy=0;fontSize=14;" parent="7nDcxTLfw2DQSQo6lw5K-8" source="7nDcxTLfw2DQSQo6lw5K-15" target="7nDcxTLfw2DQSQo6lw5K-18" edge="1">
          <mxGeometry relative="1" as="geometry" />
        </mxCell>
        <mxCell id="7nDcxTLfw2DQSQo6lw5K-15" value="" style="points=[[0.145,0.145,0],[0.5,0,0],[0.855,0.145,0],[1,0.5,0],[0.855,0.855,0],[0.5,1,0],[0.145,0.855,0],[0,0.5,0]];shape=mxgraph.bpmn.event;html=1;verticalLabelPosition=bottom;labelBackgroundColor=#ffffff;verticalAlign=top;align=center;perimeter=ellipsePerimeter;outlineConnect=0;aspect=fixed;outline=catching;symbol=timer;fontSize=14;" parent="7nDcxTLfw2DQSQo6lw5K-8" vertex="1">
          <mxGeometry x="485" y="200" width="50" height="50" as="geometry" />
        </mxCell>
        <mxCell id="7a84cebc1def654-50" style="edgeStyle=orthogonalEdgeStyle;rounded=0;html=1;jettySize=auto;orthogonalLoop=1;exitX=0.5;exitY=0;exitDx=0;exitDy=0;exitPerimeter=0;entryX=0.5;entryY=1;entryDx=0;entryDy=0;entryPerimeter=0;fontSize=14;" parent="7nDcxTLfw2DQSQo6lw5K-8" source="7nDcxTLfw2DQSQo6lw5K-13" target="7nDcxTLfw2DQSQo6lw5K-15" edge="1">
          <mxGeometry relative="1" as="geometry">
            <Array as="points">
              <mxPoint x="510" y="270" />
              <mxPoint x="510" y="270" />
            </Array>
            <mxPoint x="510" y="350" as="sourcePoint" />
            <mxPoint x="630" y="260" as="targetPoint" />
          </mxGeometry>
        </mxCell>
        <mxCell id="7nDcxTLfw2DQSQo6lw5K-48" style="edgeStyle=orthogonalEdgeStyle;rounded=0;orthogonalLoop=1;jettySize=auto;html=1;entryX=0;entryY=0.5;entryDx=0;entryDy=0;fontSize=14;" parent="7nDcxTLfw2DQSQo6lw5K-8" source="7nDcxTLfw2DQSQo6lw5K-18" target="7a84cebc1def654-26" edge="1">
          <mxGeometry relative="1" as="geometry" />
        </mxCell>
        <mxCell id="7nDcxTLfw2DQSQo6lw5K-18" value="По прошествии 5 рабочих дней, отменить заявку" style="shape=ext;rounded=1;html=1;whiteSpace=wrap;fontSize=14;" parent="7nDcxTLfw2DQSQo6lw5K-8" vertex="1">
          <mxGeometry x="610" y="185" width="120" height="80" as="geometry" />
        </mxCell>
        <mxCell id="7nDcxTLfw2DQSQo6lw5K-23" style="edgeStyle=orthogonalEdgeStyle;rounded=0;orthogonalLoop=1;jettySize=auto;html=1;entryX=0;entryY=0.5;entryDx=0;entryDy=0;fontSize=14;" parent="7nDcxTLfw2DQSQo6lw5K-8" source="7nDcxTLfw2DQSQo6lw5K-21" target="7nDcxTLfw2DQSQo6lw5K-22" edge="1">
          <mxGeometry relative="1" as="geometry" />
        </mxCell>
        <mxCell id="7nDcxTLfw2DQSQo6lw5K-21" value="" style="points=[[0.145,0.145,0],[0.5,0,0],[0.855,0.145,0],[1,0.5,0],[0.855,0.855,0],[0.5,1,0],[0.145,0.855,0],[0,0.5,0]];shape=mxgraph.bpmn.event;html=1;verticalLabelPosition=bottom;labelBackgroundColor=#ffffff;verticalAlign=top;align=center;perimeter=ellipsePerimeter;outlineConnect=0;aspect=fixed;outline=throwing;symbol=message;fontSize=14;" parent="7nDcxTLfw2DQSQo6lw5K-8" vertex="1">
          <mxGeometry x="485" y="500" width="50" height="50" as="geometry" />
        </mxCell>
        <mxCell id="7nDcxTLfw2DQSQo6lw5K-25" style="edgeStyle=orthogonalEdgeStyle;rounded=0;orthogonalLoop=1;jettySize=auto;html=1;entryX=0;entryY=0.5;entryDx=0;entryDy=0;entryPerimeter=0;fontSize=14;" parent="7nDcxTLfw2DQSQo6lw5K-8" source="7nDcxTLfw2DQSQo6lw5K-22" target="7nDcxTLfw2DQSQo6lw5K-24" edge="1">
          <mxGeometry relative="1" as="geometry" />
        </mxCell>
        <mxCell id="7nDcxTLfw2DQSQo6lw5K-22" value="Создать наряд на выбранного исполнителя" style="shape=ext;rounded=1;html=1;whiteSpace=wrap;fontSize=14;" parent="7nDcxTLfw2DQSQo6lw5K-8" vertex="1">
          <mxGeometry x="610" y="485" width="120" height="80" as="geometry" />
        </mxCell>
        <mxCell id="7nDcxTLfw2DQSQo6lw5K-27" style="edgeStyle=orthogonalEdgeStyle;rounded=0;orthogonalLoop=1;jettySize=auto;html=1;entryX=0;entryY=0.5;entryDx=0;entryDy=0;fontSize=14;" parent="7nDcxTLfw2DQSQo6lw5K-8" source="7nDcxTLfw2DQSQo6lw5K-24" target="7nDcxTLfw2DQSQo6lw5K-26" edge="1">
          <mxGeometry relative="1" as="geometry" />
        </mxCell>
        <mxCell id="7nDcxTLfw2DQSQo6lw5K-24" value="Заявка &lt;br style=&quot;font-size: 14px;&quot;&gt;была выполнена" style="points=[[0.145,0.145,0],[0.5,0,0],[0.855,0.145,0],[1,0.5,0],[0.855,0.855,0],[0.5,1,0],[0.145,0.855,0],[0,0.5,0]];shape=mxgraph.bpmn.event;html=1;verticalLabelPosition=bottom;labelBackgroundColor=#ffffff;verticalAlign=top;align=center;perimeter=ellipsePerimeter;outlineConnect=0;aspect=fixed;outline=throwing;symbol=message;fontSize=14;" parent="7nDcxTLfw2DQSQo6lw5K-8" vertex="1">
          <mxGeometry x="810" y="500" width="50" height="50" as="geometry" />
        </mxCell>
        <mxCell id="7nDcxTLfw2DQSQo6lw5K-29" style="edgeStyle=orthogonalEdgeStyle;rounded=0;orthogonalLoop=1;jettySize=auto;html=1;entryX=0.5;entryY=0;entryDx=0;entryDy=0;entryPerimeter=0;fontSize=14;" parent="7nDcxTLfw2DQSQo6lw5K-8" source="7nDcxTLfw2DQSQo6lw5K-26" target="7nDcxTLfw2DQSQo6lw5K-28" edge="1">
          <mxGeometry relative="1" as="geometry" />
        </mxCell>
        <mxCell id="7nDcxTLfw2DQSQo6lw5K-26" value="Отправить запрос на оценку удовлетворенностью выполненной работы" style="shape=ext;rounded=1;html=1;whiteSpace=wrap;fontSize=14;" parent="7nDcxTLfw2DQSQo6lw5K-8" vertex="1">
          <mxGeometry x="920" y="485" width="160" height="80" as="geometry" />
        </mxCell>
        <mxCell id="7nDcxTLfw2DQSQo6lw5K-31" style="edgeStyle=orthogonalEdgeStyle;rounded=0;orthogonalLoop=1;jettySize=auto;html=1;entryX=0;entryY=0.5;entryDx=0;entryDy=0;entryPerimeter=0;fontSize=14;" parent="7nDcxTLfw2DQSQo6lw5K-8" source="7nDcxTLfw2DQSQo6lw5K-28" target="7nDcxTLfw2DQSQo6lw5K-30" edge="1">
          <mxGeometry relative="1" as="geometry" />
        </mxCell>
        <mxCell id="7nDcxTLfw2DQSQo6lw5K-33" style="edgeStyle=orthogonalEdgeStyle;rounded=0;orthogonalLoop=1;jettySize=auto;html=1;entryX=0.5;entryY=0;entryDx=0;entryDy=0;entryPerimeter=0;fontSize=14;" parent="7nDcxTLfw2DQSQo6lw5K-8" source="7nDcxTLfw2DQSQo6lw5K-28" target="7nDcxTLfw2DQSQo6lw5K-32" edge="1">
          <mxGeometry relative="1" as="geometry" />
        </mxCell>
        <mxCell id="7nDcxTLfw2DQSQo6lw5K-28" value="" style="points=[[0.25,0.25,0],[0.5,0,0],[0.75,0.25,0],[1,0.5,0],[0.75,0.75,0],[0.5,1,0],[0.25,0.75,0],[0,0.5,0]];shape=mxgraph.bpmn.gateway2;html=1;verticalLabelPosition=bottom;labelBackgroundColor=#ffffff;verticalAlign=top;align=center;perimeter=rhombusPerimeter;outlineConnect=0;outline=catching;symbol=multiple;fontSize=14;" parent="7nDcxTLfw2DQSQo6lw5K-8" vertex="1">
          <mxGeometry x="955" y="620" width="50" height="50" as="geometry" />
        </mxCell>
        <mxCell id="7nDcxTLfw2DQSQo6lw5K-35" style="edgeStyle=orthogonalEdgeStyle;rounded=0;orthogonalLoop=1;jettySize=auto;html=1;entryX=0;entryY=0.5;entryDx=0;entryDy=0;fontSize=14;" parent="7nDcxTLfw2DQSQo6lw5K-8" source="7nDcxTLfw2DQSQo6lw5K-30" target="7nDcxTLfw2DQSQo6lw5K-34" edge="1">
          <mxGeometry relative="1" as="geometry" />
        </mxCell>
        <mxCell id="7nDcxTLfw2DQSQo6lw5K-30" value="" style="points=[[0.145,0.145,0],[0.5,0,0],[0.855,0.145,0],[1,0.5,0],[0.855,0.855,0],[0.5,1,0],[0.145,0.855,0],[0,0.5,0]];shape=mxgraph.bpmn.event;html=1;verticalLabelPosition=bottom;labelBackgroundColor=#ffffff;verticalAlign=top;align=center;perimeter=ellipsePerimeter;outlineConnect=0;aspect=fixed;outline=catching;symbol=timer;fontSize=14;" parent="7nDcxTLfw2DQSQo6lw5K-8" vertex="1">
          <mxGeometry x="1050" y="620" width="50" height="50" as="geometry" />
        </mxCell>
        <mxCell id="7nDcxTLfw2DQSQo6lw5K-38" style="edgeStyle=orthogonalEdgeStyle;rounded=0;orthogonalLoop=1;jettySize=auto;html=1;entryX=0;entryY=0.5;entryDx=0;entryDy=0;entryPerimeter=0;fontSize=14;" parent="7nDcxTLfw2DQSQo6lw5K-8" source="7nDcxTLfw2DQSQo6lw5K-32" target="7nDcxTLfw2DQSQo6lw5K-37" edge="1">
          <mxGeometry relative="1" as="geometry" />
        </mxCell>
        <mxCell id="7nDcxTLfw2DQSQo6lw5K-32" value="" style="points=[[0.145,0.145,0],[0.5,0,0],[0.855,0.145,0],[1,0.5,0],[0.855,0.855,0],[0.5,1,0],[0.145,0.855,0],[0,0.5,0]];shape=mxgraph.bpmn.event;html=1;verticalLabelPosition=bottom;labelBackgroundColor=#ffffff;verticalAlign=top;align=center;perimeter=ellipsePerimeter;outlineConnect=0;aspect=fixed;outline=throwing;symbol=message;fontSize=14;" parent="7nDcxTLfw2DQSQo6lw5K-8" vertex="1">
          <mxGeometry x="955" y="710" width="50" height="50" as="geometry" />
        </mxCell>
        <mxCell id="7nDcxTLfw2DQSQo6lw5K-34" value="Считать заявку успешно закрытой" style="shape=ext;rounded=1;html=1;whiteSpace=wrap;fontSize=14;" parent="7nDcxTLfw2DQSQo6lw5K-8" vertex="1">
          <mxGeometry x="1140" y="605" width="120" height="80" as="geometry" />
        </mxCell>
        <mxCell id="7a84cebc1def654-26" value="" style="shape=mxgraph.bpmn.shape;html=1;verticalLabelPosition=bottom;labelBackgroundColor=#ffffff;verticalAlign=top;perimeter=ellipsePerimeter;outline=end;symbol=general;fontSize=14;" parent="7nDcxTLfw2DQSQo6lw5K-8" vertex="1">
          <mxGeometry x="1270" y="200.00000000000006" width="50" height="50" as="geometry" />
        </mxCell>
        <mxCell id="7nDcxTLfw2DQSQo6lw5K-36" style="edgeStyle=orthogonalEdgeStyle;rounded=0;orthogonalLoop=1;jettySize=auto;html=1;entryX=0.5;entryY=1;entryDx=0;entryDy=0;fontSize=14;" parent="7nDcxTLfw2DQSQo6lw5K-8" source="7nDcxTLfw2DQSQo6lw5K-34" target="7a84cebc1def654-26" edge="1">
          <mxGeometry relative="1" as="geometry" />
        </mxCell>
        <mxCell id="7nDcxTLfw2DQSQo6lw5K-40" style="edgeStyle=orthogonalEdgeStyle;rounded=0;orthogonalLoop=1;jettySize=auto;html=1;entryX=0;entryY=0.5;entryDx=0;entryDy=0;entryPerimeter=0;fontSize=14;" parent="7nDcxTLfw2DQSQo6lw5K-8" source="7nDcxTLfw2DQSQo6lw5K-37" target="7nDcxTLfw2DQSQo6lw5K-42" edge="1">
          <mxGeometry relative="1" as="geometry">
            <mxPoint x="1270" y="735" as="targetPoint" />
          </mxGeometry>
        </mxCell>
        <mxCell id="7nDcxTLfw2DQSQo6lw5K-44" style="edgeStyle=orthogonalEdgeStyle;rounded=0;orthogonalLoop=1;jettySize=auto;html=1;entryX=0.5;entryY=0;entryDx=0;entryDy=0;entryPerimeter=0;fontSize=14;" parent="7nDcxTLfw2DQSQo6lw5K-8" source="7nDcxTLfw2DQSQo6lw5K-37" target="7nDcxTLfw2DQSQo6lw5K-43" edge="1">
          <mxGeometry relative="1" as="geometry">
            <Array as="points" />
          </mxGeometry>
        </mxCell>
        <mxCell id="7nDcxTLfw2DQSQo6lw5K-37" value="" style="points=[[0.25,0.25,0],[0.5,0,0],[0.75,0.25,0],[1,0.5,0],[0.75,0.75,0],[0.5,1,0],[0.25,0.75,0],[0,0.5,0]];shape=mxgraph.bpmn.gateway2;html=1;verticalLabelPosition=bottom;labelBackgroundColor=#ffffff;verticalAlign=top;align=center;perimeter=rhombusPerimeter;outlineConnect=0;outline=none;symbol=none;gwType=exclusive;fontSize=14;" parent="7nDcxTLfw2DQSQo6lw5K-8" vertex="1">
          <mxGeometry x="1050" y="710" width="50" height="50" as="geometry" />
        </mxCell>
        <mxCell id="7nDcxTLfw2DQSQo6lw5K-46" style="edgeStyle=orthogonalEdgeStyle;rounded=0;orthogonalLoop=1;jettySize=auto;html=1;entryX=0.5;entryY=1;entryDx=0;entryDy=0;fontSize=14;" parent="7nDcxTLfw2DQSQo6lw5K-8" source="7nDcxTLfw2DQSQo6lw5K-42" target="7a84cebc1def654-26" edge="1">
          <mxGeometry relative="1" as="geometry" />
        </mxCell>
        <mxCell id="7nDcxTLfw2DQSQo6lw5K-42" value="Житель &lt;br style=&quot;font-size: 14px;&quot;&gt;удовлетворен &lt;br style=&quot;font-size: 14px;&quot;&gt;работой" style="points=[[0.145,0.145,0],[0.5,0,0],[0.855,0.145,0],[1,0.5,0],[0.855,0.855,0],[0.5,1,0],[0.145,0.855,0],[0,0.5,0]];shape=mxgraph.bpmn.event;html=1;verticalLabelPosition=bottom;labelBackgroundColor=#ffffff;verticalAlign=top;align=center;perimeter=ellipsePerimeter;outlineConnect=0;aspect=fixed;outline=throwing;symbol=general;fontSize=14;" parent="7nDcxTLfw2DQSQo6lw5K-8" vertex="1">
          <mxGeometry x="1270" y="710" width="50" height="50" as="geometry" />
        </mxCell>
        <mxCell id="7nDcxTLfw2DQSQo6lw5K-45" style="edgeStyle=orthogonalEdgeStyle;rounded=0;orthogonalLoop=1;jettySize=auto;html=1;entryX=0.5;entryY=1;entryDx=0;entryDy=0;fontSize=14;" parent="7nDcxTLfw2DQSQo6lw5K-8" source="7nDcxTLfw2DQSQo6lw5K-43" target="7a84cebc1def654-2" edge="1">
          <mxGeometry relative="1" as="geometry">
            <Array as="points">
              <mxPoint x="220" y="875" />
            </Array>
          </mxGeometry>
        </mxCell>
        <mxCell id="7nDcxTLfw2DQSQo6lw5K-43" value="Житель &lt;br style=&quot;font-size: 14px;&quot;&gt;не удовлетворен &lt;br style=&quot;font-size: 14px;&quot;&gt;работой" style="points=[[0.145,0.145,0],[0.5,0,0],[0.855,0.145,0],[1,0.5,0],[0.855,0.855,0],[0.5,1,0],[0.145,0.855,0],[0,0.5,0]];shape=mxgraph.bpmn.event;html=1;verticalLabelPosition=bottom;labelBackgroundColor=#ffffff;verticalAlign=top;align=center;perimeter=ellipsePerimeter;outlineConnect=0;aspect=fixed;outline=throwing;symbol=general;fontSize=14;" parent="7nDcxTLfw2DQSQo6lw5K-8" vertex="1">
          <mxGeometry x="1050" y="850" width="50" height="50" as="geometry" />
        </mxCell>
        <mxCell id="7nDcxTLfw2DQSQo6lw5K-6" style="edgeStyle=orthogonalEdgeStyle;rounded=0;orthogonalLoop=1;jettySize=auto;html=1;fontSize=14;" parent="1" source="7a84cebc1def654-3" target="7a84cebc1def654-8" edge="1">
          <mxGeometry relative="1" as="geometry" />
        </mxCell>
        <mxCell id="7nDcxTLfw2DQSQo6lw5K-52" style="edgeStyle=orthogonalEdgeStyle;rounded=0;orthogonalLoop=1;jettySize=auto;html=1;dashed=1;dashPattern=1 2;startArrow=oval;startFill=0;fontSize=14;" parent="1" source="7a84cebc1def654-8" edge="1">
          <mxGeometry relative="1" as="geometry">
            <mxPoint x="510" y="120" as="targetPoint" />
          </mxGeometry>
        </mxCell>
        <mxCell id="7a84cebc1def654-8" value="Отправить запрос пользователю на уточнение времени выполнения заявки" style="shape=ext;rounded=1;html=1;whiteSpace=wrap;fontSize=14;" parent="1" vertex="1">
          <mxGeometry x="530" y="475" width="120" height="125" as="geometry" />
        </mxCell>
        <mxCell id="7a84cebc1def654-49" style="edgeStyle=orthogonalEdgeStyle;rounded=0;html=1;jettySize=auto;orthogonalLoop=1;entryX=0;entryY=0.5;entryDx=0;entryDy=0;entryPerimeter=0;fontSize=14;" parent="1" source="7a84cebc1def654-8" target="7nDcxTLfw2DQSQo6lw5K-13" edge="1">
          <mxGeometry relative="1" as="geometry">
            <mxPoint x="695" y="515" as="targetPoint" />
          </mxGeometry>
        </mxCell>
        <mxCell id="7a84cebc1def654-54" style="edgeStyle=orthogonalEdgeStyle;rounded=0;html=1;jettySize=auto;orthogonalLoop=1;" parent="1" edge="1">
          <mxGeometry relative="1" as="geometry">
            <Array as="points">
              <mxPoint x="855" y="815" />
            </Array>
            <mxPoint x="855" y="720" as="sourcePoint" />
          </mxGeometry>
        </mxCell>
        <mxCell id="7a84cebc1def654-55" style="edgeStyle=orthogonalEdgeStyle;rounded=0;html=1;jettySize=auto;orthogonalLoop=1;" parent="1" edge="1">
          <mxGeometry relative="1" as="geometry">
            <Array as="points">
              <mxPoint x="855" y="515" />
            </Array>
            <mxPoint x="905" y="515" as="targetPoint" />
          </mxGeometry>
        </mxCell>
        <mxCell id="7a84cebc1def654-59" style="edgeStyle=orthogonalEdgeStyle;rounded=0;html=1;jettySize=auto;orthogonalLoop=1;" parent="1" edge="1">
          <mxGeometry relative="1" as="geometry">
            <mxPoint x="1025" y="815" as="sourcePoint" />
          </mxGeometry>
        </mxCell>
        <mxCell id="7a84cebc1def654-60" style="edgeStyle=orthogonalEdgeStyle;rounded=0;html=1;jettySize=auto;orthogonalLoop=1;endArrow=none;endFill=0;" parent="1" edge="1">
          <mxGeometry relative="1" as="geometry">
            <mxPoint x="965" y="855" as="targetPoint" />
          </mxGeometry>
        </mxCell>
        <mxCell id="7a84cebc1def654-61" style="edgeStyle=orthogonalEdgeStyle;rounded=0;html=1;jettySize=auto;orthogonalLoop=1;endArrow=none;endFill=0;" parent="1" edge="1">
          <mxGeometry relative="1" as="geometry">
            <mxPoint x="1110" y="855" as="targetPoint" />
          </mxGeometry>
        </mxCell>
        <mxCell id="7a84cebc1def654-63" style="edgeStyle=orthogonalEdgeStyle;rounded=0;html=1;jettySize=auto;orthogonalLoop=1;endArrow=none;endFill=0;" parent="1" edge="1">
          <mxGeometry relative="1" as="geometry">
            <mxPoint x="1280" y="855" as="targetPoint" />
          </mxGeometry>
        </mxCell>
        <mxCell id="7a84cebc1def654-64" style="edgeStyle=orthogonalEdgeStyle;rounded=0;html=1;jettySize=auto;orthogonalLoop=1;" parent="1" edge="1">
          <mxGeometry relative="1" as="geometry">
            <mxPoint x="1170" y="815" as="sourcePoint" />
          </mxGeometry>
        </mxCell>
        <mxCell id="7nDcxTLfw2DQSQo6lw5K-47" style="edgeStyle=orthogonalEdgeStyle;rounded=0;orthogonalLoop=1;jettySize=auto;html=1;entryX=0.5;entryY=0;entryDx=0;entryDy=0;entryPerimeter=0;startArrow=oval;startFill=0;dashed=1;dashPattern=1 2;fontSize=14;" parent="1" target="7nDcxTLfw2DQSQo6lw5K-9" edge="1">
          <mxGeometry relative="1" as="geometry">
            <mxPoint x="305" y="120" as="sourcePoint" />
            <Array as="points">
              <mxPoint x="305" y="180" />
              <mxPoint x="305" y="180" />
            </Array>
          </mxGeometry>
        </mxCell>
        <mxCell id="7nDcxTLfw2DQSQo6lw5K-3" value="&lt;b style=&quot;&quot;&gt;&lt;font style=&quot;font-size: 20px;&quot;&gt;Житель&lt;/font&gt;&lt;/b&gt;" style="swimlane;html=1;startSize=20;fontStyle=0;collapsible=0;horizontal=1;swimlaneLine=0;fillColor=none;whiteSpace=wrap;verticalAlign=middle;fontSize=14;" parent="1" vertex="1">
          <mxGeometry x="210" y="80" width="1400" height="30" as="geometry" />
        </mxCell>
        <mxCell id="7nDcxTLfw2DQSQo6lw5K-50" style="edgeStyle=orthogonalEdgeStyle;rounded=0;orthogonalLoop=1;jettySize=auto;html=1;entryX=0;entryY=0.5;entryDx=0;entryDy=0;entryPerimeter=0;dashed=1;dashPattern=1 2;startArrow=oval;startFill=0;fontSize=14;" parent="1" target="7nDcxTLfw2DQSQo6lw5K-32" edge="1">
          <mxGeometry relative="1" as="geometry">
            <mxPoint x="1110" y="120" as="sourcePoint" />
            <Array as="points">
              <mxPoint x="1110" y="875" />
            </Array>
          </mxGeometry>
        </mxCell>
        <mxCell id="7nDcxTLfw2DQSQo6lw5K-53" style="edgeStyle=orthogonalEdgeStyle;rounded=0;orthogonalLoop=1;jettySize=auto;html=1;dashed=1;dashPattern=1 2;startArrow=oval;startFill=0;fontSize=14;" parent="1" source="7nDcxTLfw2DQSQo6lw5K-26" edge="1">
          <mxGeometry relative="1" as="geometry">
            <mxPoint x="1210" y="120" as="targetPoint" />
          </mxGeometry>
        </mxCell>
        <mxCell id="7nDcxTLfw2DQSQo6lw5K-55" value="Процесс выполнения заявки" style="whiteSpace=wrap;html=1;rounded=1;fontSize=14;" parent="1" vertex="1">
          <mxGeometry x="820" y="1190" width="310" height="60" as="geometry" />
        </mxCell>
        <mxCell id="7nDcxTLfw2DQSQo6lw5K-57" style="edgeStyle=orthogonalEdgeStyle;rounded=0;orthogonalLoop=1;jettySize=auto;html=1;entryX=0.194;entryY=0;entryDx=0;entryDy=0;entryPerimeter=0;dashed=1;dashPattern=1 2;startArrow=oval;startFill=0;fontSize=14;" parent="1" source="7nDcxTLfw2DQSQo6lw5K-22" target="7nDcxTLfw2DQSQo6lw5K-55" edge="1">
          <mxGeometry relative="1" as="geometry" />
        </mxCell>
        <mxCell id="7nDcxTLfw2DQSQo6lw5K-58" style="edgeStyle=orthogonalEdgeStyle;rounded=0;orthogonalLoop=1;jettySize=auto;html=1;dashed=1;dashPattern=1 2;startArrow=oval;startFill=0;exitX=0.726;exitY=0.003;exitDx=0;exitDy=0;exitPerimeter=0;fontSize=14;" parent="1" source="7nDcxTLfw2DQSQo6lw5K-55" target="7nDcxTLfw2DQSQo6lw5K-24" edge="1">
          <mxGeometry relative="1" as="geometry" />
        </mxCell>
      </root>
    </mxGraphModel>
  </diagram>
</mxfile>
